<svg width="165" height="55" viewBox="0 0 165 55" fill="none" xmlns="http://www.w3.org/2000/svg">
<path d="M39.6104 11L54.0438 45V11H39.6104Z" fill="#2D3B40"/>
<path d="M15 11V45L29.4421 11H15Z" fill="#2D3B40"/>
<path d="M28.2156 38.1593H34.9475L37.6983 44.9976H43.7237L34.5275 23.5283L28.2156 38.1593Z" fill="#2D3B40"/>
<path fill-rule="evenodd" clip-rule="evenodd" d="M95.4963 13.9507V37.3272C95.4963 39.1794 95.5926 41.4593 95.6692 43.2407H91.1557L90.8605 40.8631H90.7543C89.9959 42.3292 88.3456 43.5755 86.3742 43.5755C82.0522 43.5755 79.9091 38.8826 79.9091 32.9569C79.9091 25.7361 83.1046 22.2259 86.5892 22.2259C88.4111 22.2259 89.5907 23.1031 90.1836 24.3726H90.2713V13.9507H95.4963ZM65.4139 43.2443L66.7924 36.3852H72.2175L73.5639 43.2443H78.6813L72.9129 14.7082H66.6738L60.3224 43.2443H65.4139ZM70.6623 26.1771L71.7222 32.3582H67.3619L68.5032 26.1918C68.7482 24.8774 69.0623 22.8725 69.3349 21.1328C69.4155 20.6182 69.4925 20.1268 69.563 19.6833H69.6779C69.7817 20.3616 69.8969 21.1458 70.0157 21.9551L70.0158 21.9555L70.0158 21.9555L70.0159 21.9561C70.2348 23.447 70.4662 25.0227 70.6623 26.1771ZM90.1935 29.2658C90.2713 29.6727 90.2713 30.1174 90.2713 30.4974V35.9551C90.2713 36.4793 90.2096 36.9277 90.091 37.2625C89.6043 38.9436 88.7088 39.3346 87.9318 39.3346C86.2322 39.3346 85.1291 37.0548 85.1291 33.0509C85.1291 29.5664 85.9024 26.5877 88.0047 26.5877C89.23 26.5877 89.9922 27.8571 90.1935 29.2658ZM106.281 43.5754C101.464 43.5754 98.4447 39.7708 98.4447 32.9618C98.4447 25.5296 102.322 22.2259 106.403 22.2259C111.154 22.2259 114.132 26.2162 114.132 32.8408C114.132 41.3542 109.467 43.5754 106.323 43.5754H106.281ZM108.869 32.8713C108.869 35.9331 108.375 39.6327 106.38 39.6327H106.334C104.205 39.6327 103.624 36.3852 103.624 32.8713C103.624 29.9586 104.087 26.1649 106.292 26.1649C108.375 26.1649 108.869 29.9586 108.869 32.8713ZM117.053 13.9507H122.278V24.7232H122.362C123.392 23.1337 124.763 22.2259 126.753 22.2259C130.694 22.2259 132.672 26.6329 132.672 32.3961C132.672 39.6779 129.72 43.5755 125.896 43.5755C124.074 43.5755 122.86 42.7813 121.766 40.7653H121.654L121.364 43.2407H116.878C116.954 41.5265 117.053 39.1794 117.053 37.3272V13.9507ZM122.486 37.1794C122.376 36.8556 122.278 36.373 122.278 35.8574H122.279V30.0832C122.279 29.6983 122.374 29.1412 122.475 28.7844C122.761 27.647 123.596 26.5877 124.588 26.5877C126.587 26.5877 127.448 29.1143 127.448 32.7834C127.448 36.8141 126.632 39.3346 124.61 39.3346C123.899 39.3346 123.011 38.9094 122.486 37.1794Z" fill="#2D3B40"/>
<mask id="mask0_1473_1372" style="mask-type:alpha" maskUnits="userSpaceOnUse" x="134" y="22" width="16" height="22">
<path fill-rule="evenodd" clip-rule="evenodd" d="M150 43.4667V22.1917H134.84V43.4667H150Z" fill="white"/>
</mask>
<g mask="url(#mask0_1473_1372)">
<path fill-rule="evenodd" clip-rule="evenodd" d="M144.469 39.524C141.988 39.524 139.99 38.3059 139.928 34.5659L149.851 34.5953C149.942 33.9929 149.999 33.2208 149.999 31.8499C149.999 25.8607 147.516 22.1917 143.032 22.1917C138.393 22.1917 134.84 26.3433 134.84 33.255C134.84 39.6963 137.904 43.4667 143.511 43.4667C145.563 43.4667 147.702 43.0965 149.088 42.51L148.384 38.8117C147.132 39.278 145.806 39.5192 144.469 39.524ZM142.7 25.9926C144.356 25.9926 145.223 28.0269 145.196 30.9311H139.948C140.005 28.7172 140.809 25.9926 142.7 25.9926Z" fill="#2D3B40"/>
</g>
</svg>
