<svg width="165" height="70" viewBox="0 0 165 70" fill="none" xmlns="http://www.w3.org/2000/svg">
<path fill-rule="evenodd" clip-rule="evenodd" d="M83 0C89.5674 0 95.6574 1.7884 100.903 4.93451C102.316 5.7784 103.013 6.33792 103.013 7.13562C103.013 10.4835 93.621 13.9597 81.514 13.9597C69.279 13.9597 62.3816 10.7863 62.3816 7.83271C62.3816 6.83326 63.2712 6.05354 64.8486 5.08132C70.1137 1.85257 76.3869 0 83 0ZM106.113 8.8234C106.26 9.05285 106.333 9.30028 106.333 9.63035C106.333 13.5192 94.4372 20.3982 75.4974 20.3982C61.5839 20.3982 58.9788 15.2347 58.9788 11.951C58.9788 10.7771 59.428 9.57542 60.4187 8.35576C60.4736 8.28236 60.4279 8.25465 60.3638 8.30958C58.5569 9.84132 56.8968 11.5656 55.4385 13.4278C54.7414 14.3082 54.3102 15.0879 54.3102 15.5556C54.3102 22.3616 71.3703 27.2956 87.3201 27.2956C104.315 27.2956 111.901 21.7467 111.901 16.8671C111.901 15.1244 111.222 14.1065 109.489 12.1343C108.36 10.8505 107.296 9.80486 106.168 8.77771C106.113 8.73153 106.077 8.76847 106.113 8.8234ZM48.8711 27.2407C49.2104 25.461 50.3479 22.0218 51.3751 19.9855C51.4028 19.9306 51.4577 19.9398 51.4392 20.004C51.2652 20.701 51.1276 21.3704 51.1276 22.0403C51.1276 29.0111 62.684 34.5324 76.5338 34.5324C89.3194 34.5324 114.661 28.6713 114.359 19.582C114.349 19.5178 114.395 19.5086 114.423 19.5635C115.239 21.2236 116.202 23.59 116.716 25.6171C117.175 27.4332 117.156 28.7812 116.798 30.0562C114.854 36.9901 102.848 40.7876 87.3935 40.7876C62.0603 40.7876 51.201 33.496 49.0549 28.9372C48.7885 28.369 48.7248 28.0019 48.8711 27.2407ZM75.965 49.0331C58.0523 49.0331 49.6051 40.6865 48.0734 34.9908C48.0549 34.9081 48 34.9266 48 35C48 36.9167 48.1925 39.3935 48.5226 41.0351C48.6786 41.8328 49.33 43.0894 50.2838 44.0893C54.6223 48.6111 65.4358 54.949 84.1647 54.949C109.681 54.949 115.515 46.4465 116.707 43.6494C117.56 41.6495 118 38.0358 118 35C118 34.266 117.982 33.6792 117.954 33.1012C117.954 33.0099 117.899 33.0006 117.881 33.0925C116.606 39.9345 94.8042 49.0331 75.965 49.0331ZM109.112 57.4345C103.453 62.0851 93.9881 64.4326 85.3756 64.4326C69.0126 64.4326 55.7685 59.3605 51.4028 50.0787C51.3751 50.0053 51.4213 49.9781 51.4669 50.0417C56.1535 56.8385 68.1231 60.3969 79.2487 60.3969C94.988 60.3969 110.231 55.563 115.496 47.8134C115.551 47.7308 115.597 47.7677 115.569 47.8406C114.964 49.3636 114.221 50.9133 113.46 52.2156C112.139 54.4814 110.663 56.1692 109.112 57.4345ZM83 70C74.9194 70 67.4722 67.2394 61.5377 62.6437C61.4828 62.5985 61.51 62.5435 61.5839 62.58C65.4266 64.7262 72.2322 67.129 83 67.129C95.3915 67.129 103.261 63.1026 106.021 61.2592C106.095 61.2135 106.132 61.2592 106.058 61.3234C99.904 66.7163 91.8419 70 83 70Z" fill="#2D3B40"/>
</svg>
