<svg width="60" height="60" viewBox="0 0 60 60" fill="none" xmlns="http://www.w3.org/2000/svg">
<path fill-rule="evenodd" clip-rule="evenodd" d="M30 0C35.6292 0 40.8492 1.53292 45.3458 4.22958C46.5567 4.95292 47.1542 5.4325 47.1542 6.11625C47.1542 8.98583 39.1037 11.9654 28.7262 11.9654C18.2392 11.9654 12.3271 9.24542 12.3271 6.71375C12.3271 5.85708 13.0896 5.18875 14.4417 4.35542C18.9546 1.58792 24.3317 0 30 0ZM49.8112 7.56292C49.9371 7.75958 50 7.97167 50 8.25458C50 11.5879 39.8033 17.4842 23.5692 17.4842C11.6433 17.4842 9.41042 13.0583 9.41042 10.2437C9.41042 9.2375 9.79542 8.2075 10.6446 7.16208C10.6917 7.09917 10.6525 7.07542 10.5975 7.1225C9.04875 8.43542 7.62583 9.91333 6.37583 11.5096C5.77833 12.2642 5.40875 12.9325 5.40875 13.3333C5.40875 19.1671 20.0317 23.3962 33.7029 23.3962C48.2704 23.3962 54.7721 18.64 54.7721 14.4575C54.7721 12.9637 54.1904 12.0913 52.7046 10.4008C51.7375 9.30042 50.8254 8.40417 49.8583 7.52375C49.8113 7.48417 49.78 7.51583 49.8112 7.56292ZM0.746667 23.3492C1.0375 21.8237 2.0125 18.8758 2.89292 17.1304C2.91667 17.0833 2.96375 17.0912 2.94792 17.1462C2.79875 17.7437 2.68083 18.3175 2.68083 18.8917C2.68083 24.8667 12.5862 29.5992 24.4575 29.5992C35.4167 29.5992 57.1383 24.5754 56.8792 16.7846C56.8708 16.7296 56.9104 16.7217 56.9342 16.7688C57.6338 18.1917 58.4592 20.22 58.8992 21.9575C59.2925 23.5142 59.2767 24.6696 58.97 25.7625C57.3033 31.7058 47.0125 34.9608 33.7658 34.9608C12.0517 34.9608 2.74375 28.7108 0.904167 24.8033C0.675833 24.3162 0.62125 24.0017 0.746667 23.3492ZM23.97 42.0283C8.61625 42.0283 1.37583 34.8742 0.0629167 29.9921C0.0470833 29.9212 0 29.9371 0 30C0 31.6429 0.165 33.7658 0.447917 35.1729C0.581667 35.8567 1.14 36.9338 1.9575 37.7908C5.67625 41.6667 14.945 47.0992 30.9983 47.0992C52.8696 47.0992 57.8696 39.8112 58.8917 37.4137C59.6225 35.6996 60 32.6021 60 30C60 29.3708 59.9842 28.8679 59.9604 28.3725C59.9604 28.2942 59.9137 28.2862 59.8979 28.365C58.805 34.2296 40.1179 42.0283 23.97 42.0283ZM52.3821 49.2296C47.5312 53.2158 39.4183 55.2279 32.0363 55.2279C18.0108 55.2279 6.65875 50.8804 2.91667 42.9246C2.89292 42.8617 2.9325 42.8383 2.97167 42.8929C6.98875 48.7188 17.2483 51.7687 26.7846 51.7687C40.2754 51.7687 53.3412 47.6254 57.8537 40.9829C57.9008 40.9121 57.94 40.9437 57.9167 41.0062C57.3979 42.3117 56.7608 43.64 56.1083 44.7562C54.9762 46.6983 53.7108 48.145 52.3821 49.2296ZM30 60C23.0737 60 16.6904 57.6338 11.6038 53.6946C11.5567 53.6558 11.58 53.6087 11.6433 53.64C14.9371 55.4796 20.7704 57.5392 30 57.5392C40.6213 57.5392 47.3662 54.0879 49.7325 52.5079C49.7954 52.4688 49.8271 52.5079 49.7642 52.5629C44.4892 57.1854 37.5788 60 30 60Z" fill="#2D3B40"/>
</svg>
