<svg width="165" height="55" viewBox="0 0 165 55" fill="none" xmlns="http://www.w3.org/2000/svg">
<path d="M48.1906 21.5388H32.4362V26.185H43.6081C43.056 32.7004 37.6026 35.48 32.4553 35.48C25.8697 35.48 20.1218 30.3288 20.1218 23.1096C20.1218 16.0766 25.6007 10.659 32.4693 10.659C37.7697 10.659 40.8922 14.0174 40.8922 14.0174L44.1653 10.6488C44.1653 10.6488 39.9653 6 32.3036 6C22.547 6 15 14.1857 15 23.0267C15 31.6893 22.0994 40.1376 32.5522 40.1376C41.7452 40.1376 48.4749 33.8772 48.4749 24.6205C48.4749 22.6659 48.1906 21.5375 48.1906 21.5375V21.5388Z" fill="#2D3B40"/>
<path fill-rule="evenodd" clip-rule="evenodd" d="M49.9985 29.0552C49.9985 23.1977 54.6295 18.1741 61.0939 18.1741C66.407 18.1741 72.1702 21.9163 72.1702 29.184C72.1702 35.5234 67.2167 40.1173 61.1704 40.1173C54.4918 40.1173 49.9985 35.0006 49.9985 29.0552ZM67.3493 29.1546C67.3493 25.0378 64.338 22.484 61.1583 22.4837C61.1585 22.4837 61.1587 22.4837 61.159 22.4837H61.1577C61.1579 22.4837 61.1581 22.4837 61.1583 22.4837C57.5872 22.484 54.8424 25.3234 54.8424 29.1228C54.8424 33.0052 57.6207 35.8103 61.1437 35.8103C64.3504 35.8103 67.3493 33.1837 67.3493 29.1546Z" fill="#2D3B40"/>
<path fill-rule="evenodd" clip-rule="evenodd" d="M74.1313 29.0552C74.1313 23.1977 78.7623 18.1741 85.2267 18.1741C90.5398 18.1741 96.303 21.9163 96.303 29.184C96.303 35.5234 91.3495 40.1173 85.3033 40.1173C78.6246 40.1173 74.1313 35.0006 74.1313 29.0552ZM91.4821 29.1546C91.4821 25.0378 88.4708 22.484 85.2911 22.4837C85.2913 22.4837 85.2916 22.4837 85.2918 22.4837H85.2905C85.2907 22.4837 85.2909 22.4837 85.2911 22.4837C81.7188 22.484 78.9752 25.3234 78.9752 29.1228C78.9752 33.0052 81.7535 35.8103 85.2765 35.8103C88.4832 35.8103 91.4821 33.1837 91.4821 29.1546Z" fill="#2D3B40"/>
<path fill-rule="evenodd" clip-rule="evenodd" d="M98.301 29.1483C98.301 23.3507 102.965 18.1855 108.898 18.1855C111.48 18.1855 113.426 19.1788 114.848 20.7037V18.8447H119.477V38.5605C119.477 46.3076 114.981 50.0001 109.081 50.0001C103.688 50.0001 100.659 46.7016 99.154 43.5382L103.396 41.7761C103.985 43.1902 105.675 45.6816 109.047 45.6816C112.537 45.6816 114.848 43.4158 114.848 39.629V37.4665C113.614 38.8908 111.941 40.1326 108.795 40.1326C103.707 40.1326 98.301 35.7529 98.301 29.1483ZM115.222 29.1712C115.222 24.956 112.235 22.4862 109.328 22.4862C106.213 22.4862 103.156 24.9993 103.156 29.212C103.156 33.2666 106.1 35.8192 109.263 35.8192C112.242 35.8192 115.222 33.4579 115.222 29.1712Z" fill="#2D3B40"/>
<path fill-rule="evenodd" clip-rule="evenodd" d="M129.758 29.1163C129.758 22.5856 134.456 18.1587 140.054 18.1587V18.16C144.468 18.16 147.802 21.0849 149.233 24.5887L150 26.3775L135.201 32.4824C136.084 34.1182 137.511 35.8077 140.613 35.8077C143.376 35.8077 145.031 34.3146 146.022 32.7871L149.837 35.3104C148.126 37.5863 145.261 40.1262 140.59 40.1262C134.995 40.1262 129.758 36.027 129.758 29.1163ZM144.33 24.7225C143.713 23.445 142.262 22.379 140.245 22.379H140.246C137.051 22.379 134.02 25.6495 134.446 28.8281L144.33 24.7225Z" fill="#2D3B40"/>
<path d="M122.701 39.4746H127.563V7.13477H122.701V39.4746V39.4746Z" fill="#2D3B40"/>
</svg>
