<svg width="165" height="55" viewBox="0 0 165 55" fill="none" xmlns="http://www.w3.org/2000/svg">
<path d="M53.3575 27.504H53.3584L53.3575 27.5022V27.504Z" fill="#5B6977"/>
<path fill-rule="evenodd" clip-rule="evenodd" d="M145.22 35.9624L145.266 35.9627C148.032 35.9627 149.979 34.0169 150 31.2308C150.01 29.8518 149.618 28.5897 148.895 27.677C148.131 26.7115 147.061 26.1963 145.801 26.1864L145.775 26.1862C144.075 26.1862 142.496 27.4971 140.947 30.1941L140.824 30.4086L140.745 30.1736C140.355 29.0216 140.008 28.0614 139.799 27.4855L139.799 27.4843L139.797 27.4796C139.652 27.0774 139.587 26.897 139.572 26.8388C139.498 26.5466 139.252 26.3657 138.931 26.3657C138.732 26.3657 138.522 26.4338 138.323 26.5623C138.126 26.6895 138.016 26.8457 137.977 27.0535L137.967 27.0846C136.417 31.9929 135.139 34.3767 134.057 34.3769C133.9 34.3758 133.777 34.3229 133.685 34.2198C133.401 33.9012 133.471 33.1442 133.567 32.0962L133.568 32.0915L133.568 32.0912C133.639 31.3233 133.718 30.453 133.685 29.5301C133.621 27.7528 132.664 26.6847 131.124 26.6728C129.167 26.6726 127.899 28.7888 127.315 30.0504L127.14 30.4271L127.102 30.0126C126.956 28.451 126.44 26.5864 124.811 26.5738C122.911 26.5738 121.464 28.8389 120.581 30.7392L120.344 31.2484L120.368 30.6858C120.473 28.1508 120.559 26.6549 120.624 26.2393C120.688 25.8233 120.654 25.5435 120.52 25.3838C120.393 25.2333 120.154 25.178 119.802 25.2008C119.194 25.2399 118.883 25.6156 118.415 26.8761C117.646 28.9465 115.689 33.7622 114.127 33.7622C113.817 33.76 113.572 33.6524 113.392 33.4434C112.737 32.68 112.999 30.6185 113.361 27.7649L113.362 27.7643L113.389 27.5485C113.56 26.1972 113.268 25.909 112.546 25.7739C112.468 25.7592 112.394 25.7519 112.326 25.7519C111.749 25.7519 111.479 26.3132 110.94 27.8727C109.981 30.6486 108.748 33.5684 107.305 33.5684C107.253 33.5684 107.2 33.564 107.148 33.5551C106.383 33.4234 106.4 32.2712 106.421 30.8127L106.421 30.8073C106.433 30.0196 106.445 29.1276 106.326 28.3219C106.11 26.8732 105.27 25.9679 104.132 25.9589C101.861 25.9586 100.329 28.9129 99.6167 30.6737L99.4553 31.0723L99.4017 30.6447C99.3061 29.8814 99.1804 28.6711 99.1255 27.2398L99.124 27.1977L99.1499 27.1644C103.4 21.7302 105.307 17.8086 105.332 14.4488C105.349 12.3022 104.374 11.013 102.725 11C101.519 11 98.6512 12.0201 97.6549 21.471C97.4701 23.2233 97.3685 25.0202 97.3533 26.8117L97.353 26.8466L97.3333 26.8752C95.3892 29.7342 91.2389 34.6515 87.1757 34.6515C83.5047 34.6515 80.5757 31.6351 80.5757 26.3099C80.5757 19.1714 85.5507 14.7885 89.2941 14.7885L89.3249 14.7887C90.1385 14.7948 90.8361 15.0257 91.3426 15.4561C91.8683 15.9029 92.143 16.5294 92.1375 17.2672C92.1302 18.2529 91.8145 18.7591 91.5088 19.2487L91.5059 19.2534C91.4284 19.3778 91.3513 19.5015 91.2806 19.6324C91.2084 19.7661 91.1425 19.9606 91.2385 20.1269C91.3368 20.2973 91.5881 20.4043 91.8944 20.4067C92.7857 20.4067 94.1332 19.0967 94.1481 17.1223C94.1636 15.0562 92.4499 12.9271 89.3926 12.9271C84.7662 12.9271 78.5358 18.0895 78.5358 26.4564C78.5358 32.3748 82.1888 36.4653 87.1378 36.4653C90.6498 36.4653 94.1238 33.9117 97.2001 29.6456L97.3885 29.3868L97.4021 29.7086C97.4673 31.2691 97.579 32.5 97.6606 33.3984L97.6607 33.3989L97.6618 33.4117L97.6619 33.4118L97.662 33.4132L97.6621 33.4139L97.6621 33.4143C97.7138 33.9839 97.7512 34.3958 97.7495 34.6239C97.7456 35.1287 97.8269 35.4784 97.998 35.6933C98.1691 35.9086 98.441 36.0104 98.8533 36.0135C99.5444 36.0135 99.6824 35.5347 99.9561 34.355L100.035 34.018C100.375 32.5874 101.631 27.9189 103.52 27.9189C103.828 27.9213 104.066 28.0148 104.235 28.1968C104.653 28.6464 104.607 29.5685 104.554 30.6367C104.521 31.3031 104.487 31.9921 104.553 32.6628C104.731 34.4735 105.5 35.359 106.906 35.3697C108.35 35.3699 109.856 33.791 110.651 32.3234L110.801 32.0461L110.859 32.3569C111.006 33.1422 111.662 35.7206 113.717 35.7206C115.579 35.7206 117.175 33.7286 118.927 29.6304L119.155 29.0948L119.142 29.6786C119.129 30.1954 119.112 30.7503 119.094 31.3146L119.094 31.3155L119.094 31.3164L119.094 31.3173L119.094 31.318L119.094 31.3188C119.058 32.4492 119.021 33.6176 119.021 34.5949C119.02 35.7289 119.133 36.1618 119.649 36.1618C119.667 36.1618 119.685 36.1632 119.704 36.1646C119.724 36.1661 119.745 36.1676 119.766 36.1676C120.261 36.1676 120.597 35.8667 120.765 35.2734C122.082 30.6096 123.221 28.4376 124.349 28.4376C125.454 28.446 125.557 30.4975 125.646 34.1227L125.652 34.3765C125.679 35.6447 125.723 36.2053 126.499 36.2116C127.087 36.2116 127.234 35.7424 127.538 34.5863C127.596 34.3654 127.66 34.1238 127.734 33.8631C128.797 30.1141 129.679 28.5851 130.777 28.5851C131.717 28.5924 131.769 29.5765 131.786 29.9C131.823 30.5928 131.753 31.3173 131.685 32.0177C131.622 32.6681 131.557 33.3404 131.581 33.9671C131.639 35.4334 132.429 36.2466 133.807 36.2573C135.595 36.2575 137.209 34.1336 138.623 29.9448L138.721 29.6531L138.833 29.9399C139.089 30.5975 139.423 31.4888 139.733 32.5521L139.745 32.5927L139.728 32.6313C138.359 35.7185 137.393 39.1575 137.38 40.9941C137.361 43.4142 138.439 44.9866 140.126 44.9998L140.155 45C141.072 45 143.211 44.6261 143.253 41.163C143.269 39.7437 142.94 37.7366 142.272 35.1976L142.196 34.9069L142.442 35.0733C143.294 35.6474 144.254 35.9549 145.22 35.9624ZM99.3435 21.7081C99.2412 22.5066 99.1696 23.3516 99.1312 24.2193L99.1132 24.6204L99.3356 24.2887C102.177 20.0499 103.627 16.722 103.645 14.3977C103.652 13.4516 103.337 12.9693 102.71 12.9645H102.704C101.387 12.9645 100.005 16.5599 99.3435 21.7081ZM141.487 32.4348L141.466 32.3961L141.425 32.2626L141.444 32.2223C142.747 29.4961 144.24 27.9327 145.539 27.9327H145.552C147.019 27.9442 148.033 29.2845 148.019 31.1919C148.01 32.4653 147.457 33.1983 146.996 33.5887C146.469 34.0345 145.768 34.2899 145.072 34.2899C143.355 34.2767 142.177 33.2739 141.487 32.4348ZM141.132 42.7281C140.922 43.0115 140.63 43.155 140.265 43.155C139.845 43.1518 139.529 43.0025 139.315 42.7118C138.714 41.8957 138.883 39.9789 139.864 36.4973C139.981 36.0821 140.108 35.6641 140.243 35.2547L140.357 34.9075L140.457 35.2591C141.599 39.2768 141.827 41.7896 141.132 42.7281ZM55.1585 28.855C54.5565 31.3158 53.4023 34.2844 51.3212 34.4544C51.2631 34.4588 51.2065 34.4615 51.1517 34.4615C50.2887 34.4615 49.8047 33.8874 49.7133 32.7554C49.5988 31.3382 50.2004 29.6784 51.2453 28.5263C51.9107 27.7926 52.6611 27.3886 53.3578 27.3886H53.372C54.2523 27.3956 54.8691 28.1133 55.1528 28.7825L55.1677 28.8177L55.1585 28.855ZM74.2711 15.097L74.2415 15.0976C72.7141 15.1783 70.9608 21.0423 71.2605 26.9287C71.303 27.7637 71.3631 28.7443 71.4851 29.6858L71.5271 30.0088L71.6923 29.7298C72.7285 27.9779 73.6309 25.8753 74.3021 23.6497C75.4765 19.7552 75.4664 16.3325 74.7836 15.3947C74.6397 15.197 74.4674 15.097 74.2711 15.097ZM58.3935 35.5121C60.4044 35.348 62 32.5704 62.5927 31.3837L62.7454 31.0777L62.803 31.4158C63.0872 33.0856 63.9814 35.8903 66.7783 35.9121L66.8016 35.9124C68.0113 35.9124 69.3839 35.161 70.7708 33.7394L70.8726 33.6349L70.9466 33.761C71.8803 35.347 73.133 36.1898 74.4662 36.1204C76.4298 36.0172 77.6211 34.6033 77.7262 33.6224C77.7532 33.3721 77.6877 33.1371 77.5472 32.9778C77.3706 32.7776 77.1142 32.755 76.9256 32.9376L76.8363 33.0241C76.3789 33.4702 75.5274 34.3005 74.5997 34.3494C73.4636 34.4064 72.6235 33.7161 72.0804 32.2923L72.0578 32.2327L72.096 32.182C75.2199 28.0316 77.4125 21.6987 77.196 17.4513C77.0962 15.4854 76.5333 13.1418 74.4198 13.1418C74.368 13.1418 74.3154 13.1433 74.2621 13.1461C73.4524 13.1886 72.716 13.5805 72.0734 14.3107C70.1123 16.5392 69.0858 22.0249 69.4583 28.2863C69.5357 29.5874 69.758 30.8027 70.1194 31.8986L70.1395 31.9598L70.0984 32.0089C68.9391 33.3849 67.7953 34.1431 66.8777 34.1431C64.6692 34.1431 64.7438 30.3827 64.9183 27.2632C64.9229 27.1808 64.9278 27.1021 64.9325 27.0269C64.966 26.4887 64.9881 26.1328 64.8162 25.9191C64.676 25.7447 64.4419 25.6588 64.1006 25.656L64.0607 25.6558C63.2752 25.6558 63.111 25.8198 62.7085 27.0042C61.8722 29.4656 60.221 33.5949 58.5601 33.5949C58.0996 33.5914 57.7482 33.4312 57.5079 33.1198C56.7025 32.0754 57.3135 29.4718 57.8048 27.3784L57.8054 27.3763C57.8938 26.9997 57.9786 26.6384 58.0511 26.3041C58.1589 25.8076 58.1258 25.4452 57.9528 25.2263C57.7801 25.008 57.4341 24.919 56.9775 24.9561C56.2661 25.0138 55.8113 25.3162 55.5917 26.6901L55.5477 26.9761L55.3822 26.7727C55.0718 26.3069 54.4658 25.7517 53.3417 25.7517C53.243 25.7517 53.1412 25.7555 53.0358 25.7644C51.8359 25.8646 50.4696 26.7133 49.47 27.9806C48.3024 29.4602 47.7448 31.3328 47.9 33.2533C47.9083 33.3548 47.9227 33.4521 47.9371 33.5495L47.9371 33.5496L47.9452 33.6033L47.9089 33.6437C47.2104 34.4166 46.4989 34.8086 45.7938 34.8088C44.7056 34.8001 44.0812 33.9784 44.0812 32.6101C44.0812 31.4836 44.4487 29.2473 44.8244 26.9621L44.8244 26.962C45.2167 24.5747 45.6179 22.1341 45.6179 20.8499C45.6179 18.175 44.4443 16.7183 42.4065 16.7026L42.3757 16.7024C39.4004 16.7024 37.0807 20.1323 34.8616 27.1882C34.6583 27.8347 34.4372 28.5813 34.2477 29.2265L33.9361 30.2874L34.0286 29.1843C34.2347 26.7263 34.3763 24.3348 34.4495 22.076C34.5599 18.6659 34.106 16.4713 33.0618 15.3666C32.4986 14.7709 31.7532 14.4778 30.7828 14.4702H30.757C27.1691 14.4702 25.4229 20.5261 24.1575 24.9145L24.1013 25.1093C23.8101 26.1187 23.3037 28.0911 22.8561 29.8791L22.8774 29.6448C23.1543 26.5994 23.6234 21.4399 23.587 18.4423C23.5413 14.6812 22.3083 12.9948 19.5887 12.9737H19.5552C18.1027 12.9737 17.0948 13.7071 16.505 14.3224C15.5586 15.3098 14.9684 16.7528 15.0013 17.9989C15.0213 18.7564 15.479 19.4307 15.8259 19.4307C16.052 19.4307 16.177 19.1244 16.2314 18.942C17.0727 16.1167 18.1613 14.7433 19.5591 14.7433C20.1389 14.7479 20.5699 14.9213 20.8931 15.2735C21.9848 16.4632 21.7864 19.6753 21.4261 25.5065L21.4261 25.5075C21.31 27.3868 21.1784 29.5166 21.0672 31.9389C21.0482 32.354 21.0228 32.7556 20.9986 33.1365L20.9986 33.1375L20.9985 33.1388C20.8923 34.8209 20.8084 36.1493 21.4364 36.248C22.2536 36.3774 22.7857 36.0405 23.0576 35.2187C23.2995 34.4881 23.7216 32.9989 24.398 30.6124C24.8504 29.0162 25.4166 27.0185 26.1188 24.5779C27.7997 18.7347 29.0697 16.6087 30.6947 16.6087C32.5718 16.6087 32.7118 19.8826 32.3676 26.7911C32.3438 27.2683 32.3173 27.7663 32.2898 28.2832C32.2329 29.3524 32.1717 30.5029 32.121 31.7202C32.1105 31.9736 32.0986 32.2195 32.0871 32.4565L32.0871 32.4571V32.4572C32.0149 33.9511 31.9578 35.1311 32.3781 35.583C32.5092 35.7237 32.6877 35.7934 32.9237 35.795C33.7374 35.795 33.9821 35.0701 34.3873 33.8691L34.3946 33.8477L34.3946 33.8477C34.4642 33.6415 34.538 33.4228 34.6199 33.1933C34.9127 32.3729 35.1975 31.564 35.476 30.773L35.476 30.7728C37.8492 24.0317 39.7607 18.6021 42.2374 18.6021C43.0677 18.6021 43.713 19.2868 43.713 20.6225C43.713 22.1718 43.3382 24.4471 42.9653 26.7108C42.5963 28.9512 42.2292 31.1801 42.2292 32.6822C42.2292 33.7637 42.5357 34.7358 43.1151 35.4182C43.7096 36.1187 44.5414 36.4928 45.5205 36.5005H45.5421C46.4678 36.5005 47.4327 36.0434 48.41 35.1424L48.5016 35.0579L48.5753 35.1586C49.2188 36.0382 50.2573 36.5101 51.3785 36.422C53.0983 36.2861 54.5414 34.7305 55.0782 33.2641L55.1832 32.977L55.2883 33.2641C55.6863 34.3525 56.5494 35.6644 58.3935 35.5121Z" fill="#2D3B40"/>
<path fill-rule="evenodd" clip-rule="evenodd" d="M63.4163 21.2071C63.4219 20.4515 64.0427 19.8367 64.8109 19.8367C65.5739 19.8428 66.1901 20.467 66.1843 21.2287C66.1786 21.9841 65.5581 22.5985 64.8009 22.5985V22.7117L64.79 22.5985C64.0267 22.5924 63.4105 21.9684 63.4163 21.2071ZM111.717 21.2071C111.722 20.4515 112.343 19.8367 113.111 19.8367C113.874 19.8428 114.49 20.467 114.485 21.2287C114.479 21.9841 113.858 22.5985 113.101 22.5985V22.7117L113.09 22.5985C112.327 22.5924 111.711 21.9684 111.717 21.2071Z" fill="#2D3B40"/>
</svg>
