<svg width="165" height="55" viewBox="0 0 165 55" fill="none" xmlns="http://www.w3.org/2000/svg">
<path fill-rule="evenodd" clip-rule="evenodd" d="M60.3148 19.6719V36.7774H65.096V23.7861H68.8036C70.0302 23.7861 70.904 24.0985 71.4974 24.7402C72.2459 25.553 72.551 26.8661 72.551 29.2648V36.7794H77.1861V27.3268C77.1861 20.5835 72.9616 19.6739 68.8364 19.6739H60.3178L60.3148 19.6719ZM105.244 36.7843V19.6986V19.6917H111.898C115.674 19.6917 118.205 20.1564 119.962 22.5492C120.937 23.884 121.496 26.0276 121.496 28.4283C121.496 31.0485 120.836 33.4443 119.814 34.5359C118.367 36.0922 117.03 36.7843 112.933 36.7843H105.244ZM86.817 33.2386L90.7732 19.6986L90.7722 19.6976H95.613L90.1559 36.7833H83.3221L77.9087 19.6976H83.0259L86.817 33.2386ZM123.703 36.7843H128.444V19.6986H123.703V36.7843ZM130.372 36.7784L136.992 19.7025H143.323L150 36.7784H144.923L143.923 33.7607H136.096L135.048 36.7784H130.372ZM142.939 30.8181L140.071 22.8171L140.07 22.8191L137.108 30.8181H142.939ZM109.948 23.4163H111.985C114.941 23.4163 116.854 24.7709 116.854 28.276C116.854 31.7861 114.941 33.1407 111.985 33.1407H109.948V23.4203V23.4163ZM97.6119 36.7774L97.6099 19.6926H102.353V36.7774H97.6119Z" fill="#2D3B40"/>
<path fill-rule="evenodd" clip-rule="evenodd" d="M29.9499 15.0068V18.6415C21.9382 19.2971 15 26.2025 15 26.2025C15 26.2025 18.9293 37.767 29.9499 38.825V36.7298C30.4389 36.7991 30.9468 36.8287 31.4757 36.8287C38.0838 36.8287 42.863 33.3977 47.4911 29.3339C47.8336 29.6171 48.6518 30.0765 49.5092 30.5579L49.5093 30.5579C50.568 31.1523 51.6867 31.7804 52.0436 32.1519C47.6442 35.8993 37.39 38.9249 31.577 38.9249C31.0174 38.9249 30.4777 38.8913 29.9499 38.8359V41.9999H55.0664V15.0068H29.9499ZM29.9499 34.4755C30.5224 34.5793 31.1317 34.6406 31.7828 34.6406C38.883 34.6406 45.6989 26.2025 45.6989 26.2025C45.6989 26.2025 39.7657 18.2865 30.6556 18.599C30.42 18.6079 30.1844 18.6217 29.9499 18.6415V20.6111C30.1825 20.5913 30.417 20.5815 30.6556 20.5716C37.2061 20.3639 41.5032 26.2965 41.5032 26.2965C41.5032 26.2965 36.8612 32.8539 31.8862 32.8539C31.1705 32.8539 30.5274 32.7353 29.9499 32.5375V25.1713H29.9399C27.3823 24.8628 25.3834 27.2872 25.3834 27.2872C25.3834 27.2872 26.5036 31.3807 29.9499 32.5672V34.4755ZM29.9499 20.6151C22.748 21.1752 19.125 26.5724 19.0935 26.6195C19.1212 26.7094 21.9031 35.6958 29.9499 36.7288V34.4755C23.8367 33.3681 22.1409 26.9016 22.1409 26.9016C22.1409 26.9016 25.0762 23.5892 29.9499 23.0553V25.1515C32.3389 25.4452 32.9388 26.4699 34.2668 28.738C34.356 28.8904 34.4486 29.0485 34.5452 29.2123L37.9546 26.2856C37.9546 26.2856 35.4666 22.9634 31.2719 22.9634C30.8146 22.9634 30.3773 22.996 29.9499 23.0425V20.6151Z" fill="#2D3B40"/>
</svg>
