<svg width="110" height="26" viewBox="0 0 110 26" fill="none" xmlns="http://www.w3.org/2000/svg">
<g id="Group 4">
<path id="logo" fill-rule="evenodd" clip-rule="evenodd" d="M13.1491 25.9645C20.3558 25.9645 26.256 20.1204 26.256 12.9823C26.256 5.8441 20.3558 0 13.1069 0C5.90022 0 0 5.8441 0 12.9823C0 20.1622 5.90022 26.0063 13.1491 25.9645ZM96.8931 25.9645C104.1 25.9645 110 20.1204 110 12.9823C110 5.8441 104.1 0 96.8509 0C89.6442 0 83.744 5.8441 83.744 12.9823C83.744 20.1622 89.6442 26.0063 96.8931 25.9645ZM86.1041 13.024C86.1041 7.1799 90.9507 2.37939 96.8509 2.37939C102.793 2.37939 107.598 7.13816 107.598 13.024C107.598 18.8681 102.751 23.6686 96.8509 23.6686C90.9507 23.6686 86.1041 18.8681 86.1041 13.024ZM51.8377 20.5379C52.3013 20.0787 53.0599 20.0787 53.5235 20.5379C53.987 20.997 53.987 21.7484 53.5235 22.2076C50.4469 25.2549 45.9796 26.5907 41.6809 25.7558C35.6121 24.587 31.1448 19.2021 31.1448 13.024C31.1448 6.80421 35.6121 1.46103 41.723 0.250462C46.0217 -0.58441 50.4891 0.751385 53.5656 3.79867C54.0292 4.25785 54.0292 5.00923 53.5656 5.46841C53.102 5.92759 52.3434 5.92759 51.8798 5.46841C49.3512 2.9638 45.7267 1.87846 42.1866 2.54636C37.1714 3.54821 33.5048 7.93128 33.5048 13.024C33.5048 18.1167 37.1714 22.4998 42.1866 23.4599C45.6846 24.1278 49.3512 23.0425 51.8377 20.5379ZM13.1069 2.37939C7.2067 2.37939 2.36009 7.1799 2.36009 13.024C2.36009 18.8681 7.2067 23.6686 13.1069 23.6686C19.0072 23.6686 23.8538 18.8681 23.8538 13.024C23.8538 7.13816 19.0493 2.37939 13.1069 2.37939ZM68.7798 25.4219C69.4119 25.4219 69.9598 24.9209 69.9598 24.253V2.9638H78.3887C79.0209 2.9638 79.5687 2.42113 79.5687 1.79497C79.5687 1.16882 79.063 0.626154 78.3887 0.626154H59.2551C58.6229 0.626154 58.0751 1.16882 58.0751 1.79497C58.0751 2.42113 58.5808 2.9638 59.2551 2.9638H67.5997V24.253C67.5997 24.8792 68.1476 25.4219 68.7798 25.4219Z" fill="white"/>
</g>
</svg>
