<svg width="165" height="55" viewBox="0 0 165 55" fill="none" xmlns="http://www.w3.org/2000/svg">
<path fill-rule="evenodd" clip-rule="evenodd" d="M130.218 33.7909C131.004 33.2414 131.545 32.424 131.653 31.2433C131.695 30.7758 131.701 30.5822 131.704 30.3202V26.5592H126.755V28.6049H128.187V30.6388C128.189 30.816 128.181 31.011 128.156 31.1718C128.091 31.5456 127.738 32.1873 126.727 32.1873C125.717 32.1873 125.365 31.5471 125.304 31.1718C125.276 31.011 125.266 30.816 125.269 30.6388V24.2305C125.269 24.0042 125.285 23.754 125.328 23.5694C125.402 23.221 125.7 22.548 126.718 22.548C127.781 22.548 128.049 23.2597 128.109 23.5694C128.15 23.7689 128.158 24.1039 128.155 24.1024V24.8871H131.674V24.4196C131.674 24.4196 131.689 23.9431 131.643 23.4964C131.386 20.873 129.22 20.0347 126.744 20.0347C124.266 20.0347 122.151 20.8774 121.841 23.4964C121.815 23.7302 121.783 24.1709 121.783 24.4196L121.78 30.3202C121.785 30.5822 121.791 30.7758 121.831 31.2433C122.067 33.7923 124.266 34.7021 126.744 34.7021C127.409 34.7021 128.049 34.6291 128.64 34.4847C117.377 39.3773 102.46 43.7518 85.8271 46.6626C48.5939 53.1722 16.9193 49.8683 15.0832 39.2835C14.088 33.5452 22.0864 26.845 35.5441 20.8759C34.8425 21.3688 34.3472 22.076 34.184 23.078C34.0832 23.7079 34.0684 24.2692 34.2152 24.972C34.5637 26.6088 36.3333 27.581 37.9195 28.4523C39.1078 29.1051 40.1931 29.7013 40.5006 30.478C40.637 30.8175 40.5955 31.2537 40.5317 31.5173C40.4146 31.9833 40.1001 32.4583 39.1717 32.4583C38.2967 32.4583 37.7657 31.955 37.7657 31.1852V29.8288H34.0224L34.0194 30.9143C34.0194 34.038 36.4695 34.9805 39.0946 34.9805C41.6188 34.9805 43.6981 34.114 44.0289 31.7793C44.1979 30.5688 44.0719 29.7767 44.014 29.4774C43.6755 27.7908 41.7799 26.7845 40.1549 25.9219C38.9539 25.2844 37.9008 24.7253 37.7331 24.028C37.6664 23.7466 37.6856 23.4488 37.7183 23.2895C37.8147 22.8428 38.1202 22.35 38.9937 22.35C39.8095 22.35 40.2915 22.8562 40.2915 23.6215V24.4866H43.7723V23.5024C43.7723 20.4501 41.0434 19.9736 39.0664 19.9736C38.3545 19.9736 37.6871 20.0511 37.0791 20.2014C48.2557 15.4354 62.9013 11.186 79.1798 8.34068C116.415 1.82663 148.083 5.13056 149.916 15.7138C150.895 21.3464 143.223 27.9051 130.218 33.7909ZM89.3762 31.7376C89.0514 34.0514 86.9913 34.9061 84.4938 34.9061C81.8954 34.9061 79.4676 33.9725 79.4676 30.88L79.472 29.8095H83.1768L83.1798 31.154C83.1798 31.9059 83.7063 32.4091 84.5694 32.4091C85.4919 32.4091 85.8034 31.9416 85.9176 31.4771C85.9799 31.2135 86.0243 30.7892 85.8864 30.4527C85.5821 29.6836 84.5076 29.0929 83.3313 28.4462C81.7612 27.583 80.0097 26.6201 79.6663 25.0003C79.5224 24.3005 79.5328 23.7496 79.6337 23.1287C79.997 20.864 82.0096 20.0511 84.4641 20.0511C86.4218 20.0511 89.1285 20.5245 89.1285 23.5441V24.5178H85.6743V23.6617C85.6743 22.9024 85.2027 22.408 84.3944 22.408C83.5298 22.408 83.2302 22.889 83.1308 23.3386C83.0967 23.489 83.0774 23.7838 83.1442 24.0637C83.3099 24.754 84.3523 25.3075 85.5412 25.9387C87.1501 26.793 89.0274 27.7898 89.3643 29.4611C89.4251 29.7544 89.5452 30.5361 89.3762 31.7376ZM97.6088 34.8495C100.173 34.8495 102.233 34.0008 102.481 31.3848C102.493 31.2522 102.518 30.7222 102.51 30.4646V20.4129H98.9807V30.7817C98.9837 30.9649 98.9763 31.1659 98.9481 31.3178C98.8813 31.6617 98.5773 32.3347 97.6103 32.3347C96.6345 32.3347 96.3408 31.6617 96.2652 31.3178C96.2385 31.1674 96.231 30.9649 96.231 30.7817V20.4129H92.7057V30.4646C92.6983 30.7222 92.7235 31.2522 92.7354 31.3848C92.9801 34.0008 95.0416 34.8495 97.6088 34.8495ZM113.168 34.2852H118.136V20.4188H114.681L114.872 31.4205H114.795L111.587 20.4188H106.404V34.2852H109.837L109.646 22.9053H109.72L113.168 34.2852ZM72.4747 21.8333L72.5667 34.4311H76.0549L75.7524 20.4188H70.0603L68.3354 31.1302H68.2613L66.5379 20.4188H60.8428L60.5343 34.4311H64.03L64.1175 21.8333H64.1931L66.5275 34.4311H70.0692L72.4021 21.8333H72.4747ZM53.9968 34.4311L52.137 21.7172H52.0584L50.1467 34.4311H46.3781L48.9661 20.4188H55.1744L57.7505 34.4311H53.9968Z" fill="#2D3B40"/>
</svg>
